# xmcd
#
# Track frame offsets:
#	150
#	13540
#	30857
#	45635
#	60957
#	74772
#	86179
#	102036
#	115556
#	134368
#	149519
#	161760
#	176146
#	189275
#	208619
#	225101
#	238858
#	257438
#	273261
#	292886
#
# Disc length: 4136 seconds
# Revision: 0
# Processed by: cddbd v1.5.2PL0 Copyright (c) Steve Scherf et al.
# Submitted via: dBpowerAMP V12.0
#
DISCID=0c102614
DTITLE=Various Artist - American Heartland: Legends Of Country CD2
DYEAR=2014
DGENRE=Country
TTITLE0=Kenny Rogers - Ruby Don't Take Your Love to Town
TTITLE1=Alan Jackson and Jimmy Buffet  - It's Five o Closk Somewhere
TTITLE2=George Jones - He Stopped Loving Her Today
TTITLE3=Don Williams - I Recall a Gypsy Women
TTITLE4=David Allan Coe - She Used to Love Me A Lot
TTITLE5=Crystal Gayle - Don't It Make My Brown Eyes Blue
TTITLE6=Billie Jo SPears - Blanket On The Ground
TTITLE7=Loretta Lynn - Coal Miner's Daughter
TTITLE8=Juice Newtion - Angel of the Morning
TTITLE9=Mary Chapin Carpenter - Passionate Kisses
TTITLE10=Bobby Bare - 500 Miles Away Form Home
TTITLE11=Alabama - Song of the South
TTITLE12=Waylon Jennings - Are You Sure Hank Did It This Way
TTITLE13=Dan Fogelberg - Leader of the Band
TTITLE14=Merle Haggard - I Think I'll Just Stay Here and Drink
TTITLE15=The Highwaymen - Highwayman
TTITLE16=Joe South - Walk A Mile In My Shoes
TTITLE17=The Band - The Night They Drove Old Dixie Down
TTITLE18=Mac Davis - It's Hard To Be Humble (Live)
TTITLE19=CW McCall - Convoy
EXTD=
EXTT0=
EXTT1=
EXTT2=
EXTT3=
EXTT4=
EXTT5=
EXTT6=
EXTT7=
EXTT8=
EXTT9=
EXTT10=
EXTT11=
EXTT12=
EXTT13=
EXTT14=
EXTT15=
EXTT16=
EXTT17=
EXTT18=
EXTT19=
PLAYORDER=
